<?xml version="1.0" standalone="no"?><!DOCTYPE svg PUBLIC "-//W3C//DTD SVG 1.1//EN" "http://www.w3.org/Graphics/SVG/1.1/DTD/svg11.dtd"><svg t="1587625561017" class="icon" viewBox="0 0 1024 1024" version="1.1" xmlns="http://www.w3.org/2000/svg" p-id="4755" xmlns:xlink="http://www.w3.org/1999/xlink" width="200" height="200"><defs><style type="text/css"></style></defs><path d="M512 144a32 32 0 0 1-32 32H176v672h672V544a32 32 0 1 1 64 0v336a32 32 0 0 1-32 32H144a32 32 0 0 1-32-32V144a32 32 0 0 1 32-32h336a32 32 0 0 1 32 32z" p-id="4756" fill="#ffffff"></path><path d="M397.952 627.029333a34.005333 34.005333 0 0 1 0-48.085333L853.930667 122.965333a34.005333 34.005333 0 0 1 48.128 48.085334L446.037333 627.029333a34.005333 34.005333 0 0 1-48.085333 0" p-id="4757" fill="#ffffff"></path></svg>