<?xml version="1.0" standalone="no"?><!DOCTYPE svg PUBLIC "-//W3C//DTD SVG 1.1//EN" "http://www.w3.org/Graphics/SVG/1.1/DTD/svg11.dtd"><svg t="1587612504896" class="icon" viewBox="0 0 1024 1024" version="1.1" xmlns="http://www.w3.org/2000/svg" p-id="4751" xmlns:xlink="http://www.w3.org/1999/xlink" width="200" height="200"><defs><style type="text/css"></style></defs><path d="M544.64068659 10.01266826a3.31412009 3.31412009 0 0 0-1.58734556-2.94767208 3.19077906 3.19077906 0 0 0-3.30160722 0c-1.01890423 0.61491763-1.62667167 1.74286252-1.58913312 2.94767208 0.09652778 1.75001273 1.5194186 3.119277 3.23904297 3.11927701 1.72141189 0 3.14430273-1.36926429 3.24083049-3.11927701z m-5.8274172 23.57780155c-221.71177435 0-402.1990408 186.58996657-402.19904078 415.86308288C136.61422861 727.98979506 503.78977692 995.22156309 519.37543663 1005.84676797a33.3342565 33.3342565 0 0 0 38.87745307 0C573.84033696 995.22335062 941.01231019 727.98979506 941.01231019 449.45355269c0-229.27311631-180.48547889-415.86308287-402.1990408-415.86308288z m0 902.58291143c-74.23700517-57.87018555-335.16586732-276.17131202-335.16586733-486.72161611 0-192.15818882 150.82285276-348.38123404 335.16586733-348.38123405 184.34658971 0 335.16765488 156.22304522 335.16765489 348.38123405 0 210.20888178-260.92886214 428.85143058-335.16586734 486.72161611z m0-667.40193807c-72.94996823-1.71604925-139.66853267 41.20305731-168.77344283 108.56514017-29.10669769 67.36565799-14.80271226 145.76050747 36.18182572 198.31094039 50.98275041 52.55400799 128.50169977 68.80284926 196.08365145 41.09580421 67.58731436-27.69453217 111.78452006-93.83214244 111.80418316-167.29156281 1.02247934-98.56557827-77.38309546-179.38970996-175.29442995-180.68032196z m0 293.88058265c-45.82387739 1.724987-88.09231525-24.74328498-106.82585278-66.8776565-18.73353756-42.13615907-10.17116685-91.49938801 21.62937063-124.75320469 31.80232505-33.25560426 80.48270941-43.74138011 123.01927995-26.49687281 42.534783 17.24629488 70.40628274 58.76396121 70.4366711 104.92926087 0.93488932 61.24150727-47.43446108 111.7398313-108.25768135 113.03223087v0.16624226z" p-id="4752" fill="#707070"></path></svg>